<svg width="100" height="36" viewBox="0 0 100 36" fill="none" xmlns="http://www.w3.org/2000/svg">
<path d="M24.7287 20.9301V18.5377H23.9182V16.3173H24.7287V14.566H27.6124V16.3173H29.2178V18.5377H27.6124V20.289C27.6124 20.7581 27.8462 21.0083 28.3138 21.0083C28.5787 21.0083 28.8749 20.9301 29.1866 20.7894V23.0098C28.6879 23.2756 28.0644 23.4007 27.3474 23.4007C25.6016 23.4007 24.7287 22.5876 24.7287 20.9301Z" fill="#010103"/>
<path d="M29.935 22.8535C29.5297 22.4782 29.3115 21.9622 29.3115 21.3054V21.2742C29.3115 20.6018 29.5453 20.0701 30.0129 19.6949C30.4806 19.3352 31.1196 19.1476 31.9146 19.1476C32.5848 19.1476 33.1304 19.2414 33.52 19.3978V19.2883C33.52 18.6159 33.0992 18.3032 32.2575 18.3032C31.6496 18.3032 31.0261 18.4283 30.3714 18.6941L29.8727 16.8021C30.7455 16.4581 31.7119 16.3017 32.7407 16.3017C34.0812 16.3017 35.0476 16.5988 35.6243 17.193C36.0919 17.6621 36.3413 18.397 36.3413 19.3665V23.4164H33.5045V22.572C32.9745 23.1349 32.3354 23.432 31.5405 23.432C30.8702 23.4164 30.3403 23.2287 29.935 22.8535ZM33.3018 21.4774C33.4577 21.2898 33.5512 21.024 33.5512 20.7112V20.4298C33.3642 20.3516 33.146 20.3203 32.8966 20.3203C32.3042 20.3203 32.0237 20.5705 32.0237 21.0865V21.1178C32.0237 21.3211 32.086 21.4774 32.2107 21.5869C32.3354 21.712 32.4913 21.7745 32.6783 21.7745C32.9433 21.7745 33.146 21.6651 33.3018 21.4774Z" fill="#010103"/>
<path d="M36.4661 16.3174H39.412V17.7403C39.8641 16.677 40.5967 16.3017 41.6254 16.3017V19.3352H41.3137C40.0511 19.3352 39.412 20.0858 39.412 21.6025V23.4007H36.4661V16.3174Z" fill="#010103"/>
<path d="M42.541 20.929V18.5366H41.7305V16.3162H42.541V14.5649H45.4246V16.3162H47.0145V18.5366H45.4246V20.2879C45.4246 20.757 45.6584 21.0072 46.126 21.0072C46.391 21.0072 46.6872 20.929 46.9989 20.7882V23.0086C46.5001 23.2745 45.8766 23.3996 45.1596 23.3996C43.4139 23.3996 42.541 22.5864 42.541 20.929Z" fill="#010103"/>
<path d="M47.7626 22.7429C47.3418 22.2894 47.1235 21.6639 47.1235 20.8821V16.3162H50.0072V19.9596C50.0072 20.2567 50.0851 20.4756 50.241 20.6632C50.3968 20.8352 50.5839 20.8978 50.8021 20.8978C51.0359 20.8978 51.223 20.8196 51.3788 20.6632C51.5503 20.4912 51.6282 20.2567 51.6282 19.9596V16.3162H54.5118V23.4152H51.6282V22.3207C51.0515 23.04 50.3657 23.4152 49.5084 23.4152C48.7758 23.4152 48.1835 23.1963 47.7626 22.7429Z" fill="#010103"/>
<path d="M54.6057 16.3162H57.4893V17.1606C58.1128 16.4882 58.7986 16.3006 59.5468 16.3006C60.3885 16.3006 61.09 16.4726 61.6667 17.1293C62.2434 17.8017 62.524 18.6617 62.524 19.725V19.7563C62.524 20.8352 62.2278 21.7109 61.6667 22.4145C61.1055 23.0869 60.4041 23.4153 59.578 23.4153C58.7519 23.4153 58.0661 23.1025 57.5049 22.4614V25.2916H54.6213V16.3162H54.6057ZM59.4065 20.6788C59.6248 20.4443 59.7339 20.1316 59.7339 19.7876V19.7563C59.7339 19.4123 59.6248 19.1152 59.4065 18.865C59.1883 18.6305 58.9078 18.5054 58.5804 18.5054C58.2531 18.5054 57.9725 18.6148 57.7543 18.865C57.5361 19.0995 57.427 19.4123 57.427 19.7563V19.7876C57.427 20.1316 57.5361 20.4287 57.7543 20.6632C57.9725 20.8978 58.2531 21.0385 58.5804 21.0385C58.9078 21.0385 59.1883 20.929 59.4065 20.6788Z" fill="#010103"/>
<path d="M72.4413 13.9718H69.4797V15.8013H72.4413V13.9718Z" fill="#010103"/>
<path d="M72.4411 16.3174H69.4951V23.4007H72.4411V16.3174Z" fill="#010103"/>
<path d="M73.5788 22.4469C72.893 21.8058 72.55 20.9614 72.55 19.8981V19.8669C72.55 18.8505 72.8774 18.0061 73.532 17.3181C74.1867 16.6301 75.0284 16.3017 76.026 16.3017C77.1794 16.3017 78.0523 16.6614 78.6914 17.3963C79.2681 18.0687 79.5486 18.9443 79.5486 20.0389C79.5486 20.2421 79.5487 20.4142 79.5331 20.508H75.1843C75.3869 21.1178 75.8078 21.4149 76.4624 21.4149C76.93 21.4149 77.3976 21.1803 77.8341 20.7269L79.346 21.9309C78.5978 22.916 77.5691 23.4007 76.2598 23.4007C75.1687 23.4164 74.2646 23.1036 73.5788 22.4469ZM76.9924 19.2883C76.93 18.6003 76.6027 18.2719 76.0571 18.2719C75.5428 18.2719 75.2466 18.6003 75.1687 19.2883H76.9924Z" fill="#010103"/>
<path d="M80.4682 20.9301V18.5377H79.6577V16.3173H80.4682V14.566H83.3519V16.3173H84.9417V18.5377H83.3519V20.289C83.3519 20.7581 83.5857 21.0083 84.0533 21.0083C84.3183 21.0083 84.6144 20.9301 84.9261 20.7894V23.0098C84.4274 23.2756 83.8039 23.4007 83.0869 23.4007C81.3411 23.4007 80.4682 22.5876 80.4682 20.9301Z" fill="#010103"/>
<path d="M17.6055 19.9606C18.5252 20.6642 19.5695 21.0238 20.7541 21.0238C21.2685 21.0238 21.5335 20.8987 21.5335 20.6329V20.6017C21.5335 20.3671 21.1282 20.1795 20.2865 20.0075C19.0707 19.7573 18.1823 19.4602 17.6367 19.1162C16.873 18.6314 16.4989 17.9747 16.4989 17.0991V17.0678C16.4989 16.1765 16.8262 15.4572 17.4808 14.8943C18.1823 14.3157 19.1331 14.0186 20.3333 14.0186C22.0011 14.0186 23.3572 14.4252 24.4015 15.2539L22.9363 17.2867C22.1258 16.6925 21.2218 16.3954 20.2398 16.3954C19.8033 16.3954 19.5851 16.5205 19.5851 16.7707V16.802C19.5851 17.0365 19.9904 17.2241 20.7853 17.3805C22.0635 17.6151 22.9987 17.9278 23.5754 18.3031C24.2768 18.7878 24.6353 19.4445 24.6353 20.2889V20.3202C24.6353 21.2584 24.2768 22.0089 23.5598 22.5719C22.8584 23.1191 21.892 23.385 20.6606 23.385C18.7434 23.385 17.2003 22.8846 16.0312 21.8682L17.6055 19.9606Z" fill="#010103"/>
<path d="M59.6286 14.5815C59.6286 14.5815 60.2521 16.6455 63.1981 17.5368C66.144 18.4438 67.6092 20.6485 65.1932 24.8235C65.7232 22.8689 66.3778 20.0074 63.0266 19.2099C59.9092 18.2561 59.4416 17.2554 59.6286 14.5815Z" fill="#F34F0E"/>
<path d="M66.0504 13.4244C62.9485 11.6418 62.9485 10.5629 63.1356 9.65599C63.9149 6.73195 66.9388 7.15414 66.9388 7.15414C61.9821 6.35667 60.626 8.84289 60.3455 10.2502C59.8467 12.5175 62.4965 14.3001 62.4965 14.3001C62.4965 14.3001 65.2554 16.0514 66.2842 17.0052C67.8741 18.6001 66.0504 23.0566 65.2866 24.6828C65.4736 24.4013 66.0815 23.5726 67.8741 21.1958C70.7733 17.3648 69.1678 15.207 66.0504 13.4244Z" fill="#FE7212"/>
<rect x="0.5" y="0.5" width="99" height="35" rx="2.5" stroke="#E5E5E5"/>
</svg>
